<svg width="107" height="47" viewBox="0 0 107 47" fill="none" xmlns="http://www.w3.org/2000/svg">
<path d="M17.4688 46H9.71875C9.53125 46 9.42708 45.8958 9.40625 45.6875L0.5625 1.71875C0.520833 1.55208 0.604167 1.46875 0.8125 1.46875H8.0625C8.22917 1.46875 8.33333 1.55208 8.375 1.71875L13.625 31.0312L18.75 1.71875C18.7917 1.55208 18.8958 1.46875 19.0625 1.46875H26.2188C26.4479 1.46875 26.5312 1.55208 26.4688 1.71875L17.7812 45.6875C17.7604 45.8958 17.6562 46 17.4688 46ZM38.1875 46.625C35.9167 46.625 33.8229 46.0417 31.9062 44.875C30.0104 43.7083 28.4792 42.1562 27.3125 40.2188C26.1667 38.2604 25.5938 36.1146 25.5938 33.7812L25.6562 13.5C25.6562 11.125 26.2292 8.98958 27.375 7.09375C28.5 5.17708 30.0208 3.64583 31.9375 2.5C33.8542 1.33333 35.9375 0.75 38.1875 0.75C40.5208 0.75 42.6146 1.32292 44.4688 2.46875C46.3438 3.61458 47.8438 5.15625 48.9688 7.09375C50.1146 9.01042 50.6875 11.1458 50.6875 13.5L50.75 33.7812C50.75 36.1146 50.1875 38.25 49.0625 40.1875C47.9167 42.1458 46.3958 43.7083 44.5 44.875C42.6042 46.0417 40.5 46.625 38.1875 46.625ZM38.1875 38.9062C39.4792 38.9062 40.6042 38.3854 41.5625 37.3438C42.5208 36.2812 43 35.0938 43 33.7812L42.9375 13.5C42.9375 12.0833 42.4896 10.8854 41.5938 9.90625C40.6979 8.92708 39.5625 8.4375 38.1875 8.4375C36.875 8.4375 35.75 8.91667 34.8125 9.875C33.875 10.8333 33.4062 12.0417 33.4062 13.5V33.7812C33.4062 35.1771 33.875 36.3854 34.8125 37.4062C35.75 38.4062 36.875 38.9062 38.1875 38.9062ZM63.1562 46H55.9062C55.6979 46 55.5938 45.8958 55.5938 45.6875L55.6562 1.71875C55.6562 1.55208 55.7396 1.46875 55.9062 1.46875H63.0938C63.2604 1.46875 63.3438 1.55208 63.3438 1.71875L63.4062 45.6875C63.4062 45.8958 63.3229 46 63.1562 46ZM80.8125 45.9375L69.3438 46C69.1354 46 69.0312 45.8958 69.0312 45.6875L69.1562 1.71875C69.1562 1.55208 69.2396 1.46875 69.4062 1.46875L81.375 1.40625C83.75 1.34375 85.8958 1.88542 87.8125 3.03125C89.75 4.17708 91.2917 5.72917 92.4375 7.6875C93.6042 9.625 94.1875 11.7708 94.1875 14.125V32.5C94.1875 34.9583 93.5938 37.2083 92.4062 39.25C91.1979 41.2708 89.5938 42.8854 87.5938 44.0938C85.5938 45.2812 83.3333 45.8958 80.8125 45.9375ZM81.375 9.0625L76.9062 9.125L76.8438 38.125H80.8125C82.3958 38.125 83.7292 37.5729 84.8125 36.4688C85.8958 35.3646 86.4375 34.0417 86.4375 32.5V14.0625C86.4375 12.7083 85.9375 11.5312 84.9375 10.5312C83.9375 9.51042 82.75 9.02083 81.375 9.0625ZM106.719 46H99.4688C99.3021 46 99.2188 45.9167 99.2188 45.75V38.5C99.2188 38.3333 99.3021 38.25 99.4688 38.25H106.719C106.885 38.25 106.969 38.3333 106.969 38.5V45.75C106.969 45.9167 106.885 46 106.719 46Z" fill="black"/>
</svg>
